<svg width="31" height="31" viewBox="0 0 31 31" fill="none" xmlns="http://www.w3.org/2000/svg">
<g clip-path="url(#clip0_320_18933)">
<path d="M6.83333 23.9167H10.25V11.9583H6.83333V23.9167ZM13.6667 23.9167H17.0833V6.83333H13.6667V23.9167ZM20.5 23.9167H23.9167V17.0833H20.5V23.9167ZM3.41667 30.75C2.47708 30.75 1.67274 30.4155 1.00365 29.7464C0.334549 29.0773 0 28.2729 0 27.3333V3.41667C0 2.47708 0.334549 1.67274 1.00365 1.00365C1.67274 0.334549 2.47708 0 3.41667 0H27.3333C28.2729 0 29.0773 0.334549 29.7464 1.00365C30.4155 1.67274 30.75 2.47708 30.75 3.41667V27.3333C30.75 28.2729 30.4155 29.0773 29.7464 29.7464C29.0773 30.4155 28.2729 30.75 27.3333 30.75H3.41667Z" fill="#6BCB77"/>
</g>
<defs>
<clipPath id="clip0_320_18933">
<rect width="30.75" height="30.75" fill="white"/>
</clipPath>
</defs>
</svg>
