<svg width="35" height="35" viewBox="0 0 35 35" fill="none" xmlns="http://www.w3.org/2000/svg">
<path d="M0.621094 5.36551C0.621094 2.82382 2.68154 0.763367 5.22323 0.763367H29.768C32.3097 0.763367 34.3701 2.82381 34.3701 5.36551V29.9102C34.3701 32.4519 32.3097 34.5124 29.768 34.5124H5.22323C2.68154 34.5124 0.621094 32.4519 0.621094 29.9102V5.36551Z" fill="#EFECFF"/>
<path d="M24.7762 20.8504H24.201V17.6491C24.201 17.4857 24.1464 17.3446 24.0373 17.2256C23.93 17.1084 23.7928 17.0499 23.6257 17.0499H18.0699V14.4638H18.6452C18.9571 14.4638 19.2264 14.3457 19.4531 14.1096C19.6815 13.8717 19.7957 13.5903 19.7957 13.2653V10.8684C19.7957 10.5328 19.6815 10.2487 19.4531 10.0161C19.2264 9.78533 18.9571 9.66992 18.6452 9.66992H16.3441C16.0322 9.66992 15.7629 9.78533 15.5362 10.0161C15.3078 10.2487 15.1936 10.5328 15.1936 10.8684V13.2653C15.1936 13.5903 15.3078 13.8717 15.5362 14.1096C15.7629 14.3457 16.0322 14.4638 16.3441 14.4638H16.9194V17.0499H11.3636C11.1965 17.0499 11.0593 17.1084 10.9519 17.2256C10.8428 17.3446 10.7883 17.4857 10.7883 17.6491V20.8504H10.213C9.89089 20.8504 9.61817 20.9693 9.39488 21.2072C9.17329 21.4434 9.0625 21.7239 9.0625 22.0488V24.4458C9.0625 24.7707 9.17329 25.0512 9.39488 25.2874C9.61817 25.5253 9.89089 25.6442 10.213 25.6442H12.5141C12.826 25.6442 13.0962 25.5253 13.3246 25.2874C13.5513 25.0512 13.6646 24.7707 13.6646 24.4458V22.0488C13.6646 21.7239 13.5513 21.4434 13.3246 21.2072C13.0962 20.9693 12.826 20.8504 12.5141 20.8504H11.9388V18.2483H16.9194V20.8504H16.3441C16.0322 20.8504 15.7629 20.9693 15.5362 21.2072C15.3078 21.4434 15.1936 21.7239 15.1936 22.0488V24.4458C15.1936 24.7707 15.3078 25.0512 15.5362 25.2874C15.7629 25.5253 16.0322 25.6442 16.3441 25.6442H18.6452C18.9571 25.6442 19.2264 25.5253 19.4531 25.2874C19.6815 25.0512 19.7957 24.7707 19.7957 24.4458V22.0488C19.7957 21.7239 19.6815 21.4434 19.4531 21.2072C19.2264 20.9693 18.9571 20.8504 18.6452 20.8504H18.0699V18.2483H23.0504V20.8504H22.4752C22.1633 20.8504 21.8931 20.9693 21.6647 21.2072C21.438 21.4434 21.3246 21.7239 21.3246 22.0488V24.4458C21.3246 24.7707 21.438 25.0512 21.6647 25.2874C21.8931 25.5253 22.1633 25.6442 22.4752 25.6442H24.7762C25.1001 25.6442 25.3728 25.5253 25.5944 25.2874C25.816 25.0512 25.9268 24.7707 25.9268 24.4458V22.0488C25.9268 21.7239 25.816 21.4434 25.5944 21.2072C25.3728 20.9693 25.1001 20.8504 24.7762 20.8504ZM16.7225 12.8552V11.2626H18.2668V12.8552H16.7225ZM12.1204 22.443V24.0516H10.5914V22.443H12.1204ZM18.2668 22.443V24.0516H16.7225V22.443H18.2668ZM24.3979 22.443V24.0516H22.8689V22.443H24.3979Z" fill="#816BFF"/>
</svg>
