<svg width="35" height="35" viewBox="0 0 35 35" fill="none" xmlns="http://www.w3.org/2000/svg">
<path d="M0.621094 5.49215C0.621094 2.95046 2.68154 0.890015 5.22323 0.890015H29.768C32.3097 0.890015 34.3701 2.95046 34.3701 5.49215V30.0369C34.3701 32.5786 32.3097 34.639 29.768 34.639H5.22323C2.68154 34.639 0.621094 32.5786 0.621094 30.0369V5.49215Z" fill="#DFF7FB"/>
<path d="M15.7878 15.8068C15.8116 15.8068 15.8389 15.8068 15.8696 15.8068C15.8985 15.8068 15.9309 15.8068 15.9667 15.8068C16.0025 15.8068 16.0417 15.8068 16.0843 15.8068C16.1269 15.8068 16.1721 15.8068 16.2198 15.8068C16.663 15.8068 17.0849 15.7225 17.4854 15.5538C17.8877 15.3869 18.2448 15.1597 18.5567 14.872H18.5388C18.7536 14.6465 18.9215 14.3909 19.0425 14.105C19.1618 13.8174 19.2215 13.5049 19.2215 13.1675C19.2215 13.1178 19.2181 13.0708 19.2112 13.0264C19.2061 12.9838 19.2036 12.9438 19.2036 12.9065V12.9252C19.12 12.0499 18.7698 11.3157 18.1527 10.7227C17.5357 10.1296 16.807 9.82069 15.9667 9.79584C15.1162 9.82069 14.3824 10.1358 13.7654 10.7413C13.1483 11.3468 12.7981 12.0809 12.7145 12.9438V12.9625C12.7145 12.9998 12.7145 13.0335 12.7145 13.0637C12.7145 13.0956 12.7145 13.1303 12.7145 13.1675C12.7145 13.5049 12.7742 13.82 12.8935 14.113C13.0128 14.406 13.1748 14.659 13.3793 14.872C13.6793 15.1597 14.027 15.3869 14.4225 15.5538C14.8179 15.7225 15.2372 15.8068 15.6804 15.8068C15.6923 15.8068 15.7102 15.8068 15.7341 15.8068C15.7579 15.8068 15.7758 15.8068 15.7878 15.8068ZM15.9667 11.3885C16.4116 11.4133 16.7951 11.5847 17.1173 11.9025C17.4411 12.2221 17.6269 12.6065 17.6746 13.0557V13.0743C17.6746 13.0868 17.6746 13.1018 17.6746 13.1196C17.6746 13.1391 17.6746 13.1551 17.6746 13.1675C17.6746 13.2794 17.6542 13.3859 17.6133 13.4871C17.5707 13.5866 17.5195 13.6736 17.4599 13.7481C17.2792 13.8973 17.084 14.0127 16.8744 14.0944C16.6647 14.176 16.4406 14.2169 16.2019 14.2169C16.1662 14.2169 16.1304 14.2169 16.0946 14.2169C16.0571 14.2169 16.0204 14.2107 15.9846 14.1982H16.0025C15.9906 14.1982 15.9821 14.1982 15.977 14.1982C15.9701 14.1982 15.9667 14.1982 15.9667 14.1982C15.9548 14.1982 15.9463 14.1982 15.9412 14.1982C15.9343 14.1982 15.925 14.1982 15.913 14.1982H15.9309C15.8951 14.2107 15.8593 14.2169 15.8235 14.2169C15.7878 14.2169 15.7579 14.2169 15.7341 14.2169C15.4937 14.2169 15.2662 14.176 15.0514 14.0944C14.8349 14.0127 14.6432 13.8973 14.4761 13.7481C14.4046 13.6736 14.3475 13.5892 14.3048 13.4951C14.2622 13.401 14.2409 13.298 14.2409 13.1862C14.2409 13.1738 14.2409 13.1613 14.2409 13.1489C14.2409 13.1365 14.2409 13.124 14.2409 13.1116C14.2886 12.65 14.4744 12.2532 14.7983 11.9211C15.1221 11.5909 15.5057 11.4133 15.9488 11.3885H15.9667ZM25.171 21.9883V24.1775C25.171 24.3906 25.096 24.5752 24.946 24.7315C24.7977 24.8877 24.6153 24.9659 24.3989 24.9659C24.1824 24.9659 24 24.8877 23.8517 24.7315C23.7017 24.5752 23.6267 24.3906 23.6267 24.1775V21.9883C23.6267 21.0881 23.51 20.3167 23.2765 19.6739C23.0412 19.0312 22.7864 18.6352 22.512 18.4861C22.391 18.424 22.2921 18.3299 22.2154 18.2038C22.137 18.0795 22.0978 17.9366 22.0978 17.775C22.0978 17.5619 22.1728 17.3773 22.3228 17.221C22.4728 17.0648 22.6552 16.9867 22.8699 16.9867C22.9313 16.9867 22.9918 16.9929 23.0515 17.0053C23.1111 17.0178 23.1708 17.0435 23.2304 17.0826C23.8185 17.4057 24.2889 18.0138 24.6418 18.9069C24.9946 19.8 25.171 20.8271 25.171 21.9883ZM21.6478 14.0864C21.6478 14.0722 21.6478 14.0589 21.6478 14.0464C21.6478 14.034 21.6478 14.0216 21.6478 14.0091C21.6478 13.6736 21.5464 13.3708 21.3436 13.101C21.139 12.8329 20.8868 12.6553 20.5868 12.5683H20.5689C20.4018 12.5186 20.2646 12.4218 20.1572 12.278C20.0481 12.1342 19.9936 11.9753 19.9936 11.8013C19.9936 11.5758 20.0686 11.3849 20.2186 11.2287C20.3686 11.0724 20.5459 10.9943 20.7504 10.9943C20.7862 10.9943 20.822 10.9979 20.8578 11.005C20.8936 11.0103 20.9234 11.013 20.9473 11.013C21.595 11.1887 22.1285 11.5509 22.5478 12.0996C22.9671 12.65 23.1767 13.2803 23.1767 13.9905C23.1767 14.0793 23.1708 14.1672 23.1588 14.2542C23.1469 14.3412 23.135 14.4282 23.1231 14.5152V14.4965C23.1231 14.5214 23.1196 14.54 23.1128 14.5524C23.1077 14.5649 23.1052 14.5773 23.1052 14.5897C22.9364 14.9644 22.7114 15.2991 22.4302 15.5938C22.1489 15.8867 21.8345 16.114 21.4867 16.2756H21.4509C21.4032 16.3129 21.3555 16.3475 21.3078 16.3795C21.26 16.4096 21.2115 16.4372 21.162 16.462C21.1024 16.5011 21.0402 16.533 20.9754 16.5579C20.9089 16.5827 20.8339 16.5952 20.7504 16.5952C20.6174 16.5952 20.4947 16.5579 20.3822 16.4833C20.268 16.407 20.1751 16.3129 20.1035 16.201C20.066 16.1389 20.0388 16.0732 20.0217 16.0039C20.003 15.9365 19.9936 15.8646 19.9936 15.7882C19.9936 15.6391 20.0268 15.505 20.0933 15.3861C20.1598 15.2671 20.2467 15.1765 20.3541 15.1144V15.0958C20.4138 15.0709 20.4709 15.0398 20.5254 15.0025C20.5782 14.9653 20.6353 14.9342 20.6967 14.9093C20.8876 14.8223 21.064 14.7096 21.2259 14.5711C21.3879 14.4344 21.5225 14.279 21.6299 14.105L21.6478 14.0864ZM22.0978 22.8485V24.9659C22.0978 25.1896 22.0228 25.3795 21.8728 25.5358C21.7228 25.692 21.5404 25.7702 21.3257 25.7702C21.1211 25.7702 20.9439 25.692 20.7939 25.5358C20.6439 25.3795 20.5689 25.1896 20.5689 24.9659V22.8485C20.5689 21.9253 20.3771 21.1174 19.9936 20.425C19.6101 19.7307 19.161 19.3836 18.6462 19.3836H13.2719C12.7674 19.3836 12.3234 19.7307 11.9399 20.425C11.5563 21.1174 11.3646 21.9253 11.3646 22.8485V24.9659C11.3646 25.1896 11.2896 25.3795 11.1396 25.5358C10.9913 25.692 10.8089 25.7702 10.5924 25.7702C10.376 25.7702 10.1936 25.692 10.0453 25.5358C9.89531 25.3795 9.82031 25.1896 9.82031 24.9659V22.8485C9.82031 22.1366 9.9098 21.469 10.0888 20.8458C10.2694 20.2332 10.5149 19.6997 10.8251 19.2451C11.137 18.7888 11.5026 18.4293 11.922 18.1665C12.3413 17.9055 12.7912 17.775 13.2719 17.775H18.6462C19.1252 17.775 19.5743 17.9055 19.9936 18.1665C20.4129 18.4293 20.7785 18.7888 21.0904 19.2451C21.4024 19.6997 21.6487 20.2332 21.8293 20.8458C22.0083 21.469 22.0978 22.1366 22.0978 22.8485Z" fill="#09C2DE"/>
</svg>
